<?xml version="1.0" encoding="UTF-8"?>
<svg width="214px" height="214px" viewBox="0 0 214 214" version="1.1" xmlns="http://www.w3.org/2000/svg" xmlns:xlink="http://www.w3.org/1999/xlink">
    <title>acsc_spot copy@2x</title>
    <defs>
        <polygon id="path-1" points="106.6475 214 0.06 214 0.06 0.648 213.235 0.648 213.235 214"></polygon>
    </defs>
    <g id="Logos" stroke="none" stroke-width="1" fill="none" fill-rule="evenodd">
        <g transform="translate(-936.000000, -725.000000)" id="acsc_spot-copy">
            <g transform="translate(936.000000, 725.000000)">
                <path d="M107.246,152.791 C108.524,152.791 109.561,151.753 109.561,150.474 C109.561,149.195 108.524,148.157 107.246,148.157 C105.966,148.157 104.929,149.195 104.929,150.474 C104.929,151.753 105.966,152.791 107.246,152.791" id="Fill-1" fill="#DC3B41"></path>
                <path d="M107.246,152.791 C108.524,152.791 109.561,151.753 109.561,150.474 C109.561,149.195 108.524,148.157 107.246,148.157 C105.966,148.157 104.929,149.195 104.929,150.474 C104.929,151.753 105.966,152.791 107.246,152.791 Z" id="Stroke-2" stroke="#1A1919" stroke-width="1.63"></path>
                <g id="Group-5">
                    <mask id="mask-2" fill="white">
                        <use xlink:href="#path-1"></use>
                    </mask>
                    <g id="Clip-4"></g>
                    <path d="M106.619,214 C165.501,214 213.235,166.239 213.235,107.325 C213.235,48.41 165.501,0.648 106.619,0.648 C47.735,0.648 0,48.41 0,107.325 C0,166.239 47.735,214 106.619,214" id="Fill-3" fill="#FFFFFE" mask="url(#mask-2)"></path>
                </g>
                <path d="M106.994,213.817 C165.918,213.817 213.687,166.023 213.687,107.066 C213.687,48.111 165.918,0.315 106.994,0.315 C48.069,0.315 0.301,48.111 0.301,107.066 C0.301,166.023 48.069,213.817 106.994,213.817" id="Fill-6" fill="#FFFFFE"></path>
                <path d="M106.994,180.877 C147.733,180.877 180.763,147.831 180.763,107.067 C180.763,66.303 147.733,33.255 106.994,33.255 C66.25,33.255 33.221,66.303 33.221,107.067 C33.221,147.831 66.25,180.877 106.994,180.877" id="Fill-7" fill="#FFFFFE"></path>
                <path d="M106.994,213.974 C166.003,213.974 213.841,166.109 213.841,107.067 C213.841,48.025 166.003,0.16 106.994,0.16 C47.982,0.16 0.144,48.025 0.144,107.067 C0.144,166.109 47.982,213.974 106.994,213.974" id="Fill-8" fill="#004A86"></path>
                <path d="M106.994,170.524 C142.021,170.524 170.416,142.114 170.416,107.067 C170.416,72.02 142.021,43.609 106.994,43.609 C71.966,43.609 43.57,72.02 43.57,107.067 C43.57,142.114 71.966,170.524 106.994,170.524" id="Fill-9" fill="#FFFFFE"></path>
                <path d="M106.994,163.036 C137.89,163.036 162.935,137.978 162.935,107.067 C162.935,76.156 137.89,51.098 106.994,51.098 C76.098,51.098 51.053,76.156 51.053,107.067 C51.053,137.978 76.098,163.036 106.994,163.036" id="Fill-10" fill="#004A86"></path>
                <path d="M24.166,95.314 C26.305,95.314 28.041,93.579 28.041,91.438 C28.041,89.296 26.305,87.561 24.166,87.561 C22.026,87.561 20.291,89.296 20.291,91.438 C20.291,93.579 22.026,95.314 24.166,95.314" id="Fill-11" fill="#FFFFFE"></path>
                <path d="M191.585,95.314 C193.724,95.314 195.457,93.579 195.457,91.438 C195.457,89.296 193.724,87.561 191.585,87.561 C189.442,87.561 187.71,89.296 187.71,91.438 C187.71,93.579 189.442,95.314 191.585,95.314" id="Fill-12" fill="#FFFFFE"></path>
                <polyline id="Fill-13" fill="#FFFFFE" points="89.367 178.702 91.631 195.013 91.677 195.023 94.74 179.862 98.306 180.632 93.662 203.623 89.844 202.799 86.854 182.879 86.808 182.868 83.077 201.338 79.51 200.569 84.154 177.578 89.367 178.702"></polyline>
                <path d="M78.064,174.827 C81.885,176.564 81.865,180.741 80.693,183.447 C79.688,185.771 77.621,187.415 75.556,187.523 L74.663,198.732 L71.162,197.139 L71.996,186.952 L69.455,185.797 L65.633,194.625 L62.302,193.112 L71.51,171.847 L78.064,174.827 Z M72.469,182.85 C73.921,183.509 76.094,184.628 77.242,181.976 C78.508,179.052 76.16,178.279 74.517,177.532 L73.278,176.968 L71.018,182.189 L72.469,182.85 L72.469,182.85 Z" id="Fill-14" fill="#FFFFFE"></path>
                <polyline id="Fill-15" fill="#FFFFFE" points="67.821 174.566 61.43 170.165 58.261 174.617 63.561 178.267 61.312 181.425 56.012 177.776 52.673 182.466 59.434 187.122 57.185 190.281 47.384 183.532 60.64 164.913 70.07 171.408 67.821 174.566"></polyline>
                <polyline id="Fill-16" fill="#FFFFFE" points="45.706 154.744 43.03 150.669 26.749 161.373 24.682 158.225 40.964 147.521 38.289 143.446 41.616 141.258 49.033 152.558 45.706 154.744"></polyline>
                <polyline id="Fill-17" fill="#FFFFFE" points="49.988 167.124 56.447 160.738 59.034 163.426 42.505 179.771 39.919 177.082 47.184 169.897 42.922 165.468 35.657 172.654 33.07 169.964 49.599 153.62 52.186 156.309 45.727 162.696 49.988 167.124"></polyline>
                <path d="M41.365,140.909 L26.49,147.112 C22.065,148.956 18.498,147.608 16.972,144.017 C15.445,140.425 16.965,136.955 21.389,135.111 L36.265,128.908 L37.717,132.324 L24.224,137.95 C20.629,139.45 19.886,140.765 20.621,142.494 C21.356,144.225 22.826,144.618 26.42,143.118 L39.913,137.492 L41.365,140.909" id="Fill-18" fill="#FFFFFE"></path>
                <path d="M23.665,130.327 C17.981,131.023 11.758,129.45 11.132,124.293 C10.506,119.137 16.172,116.111 21.855,115.415 C27.539,114.721 33.762,116.293 34.388,121.45 C35.014,126.606 29.348,129.632 23.665,130.327 Z M22.307,119.132 C19.407,119.487 14.321,120.745 14.699,123.859 C15.077,126.969 20.314,126.965 23.214,126.611 C26.114,126.256 31.2,124.998 30.821,121.886 C30.443,118.774 25.206,118.778 22.307,119.132 L22.307,119.132 Z" id="Fill-19" fill="#FFFFFE"></path>
                <path d="M140.241,198.618 L136.602,199.66 L133.839,194.416 L128.575,195.924 L129.005,201.834 L125.365,202.878 L123.985,179.2 L128.79,177.824 L140.241,198.618 Z M127.577,182.318 L127.486,182.344 L128.275,192.204 L132.123,191.103 L127.577,182.318 L127.577,182.318 Z" id="Fill-20" fill="#FFFFFE"></path>
                <polyline id="Fill-21" fill="#FFFFFE" points="146.316 191.328 153.167 187.827 154.948 191.318 144.801 196.504 134.301 175.932 137.6 174.246 146.316 191.328"></polyline>
                <polyline id="Fill-22" fill="#004A86" points="149.8 187.936 153.127 194.337 157.99 192.033 153.896 185.888 149.8 187.936"></polyline>
                <polyline id="Fill-23" fill="#FFFFFE" points="157.405 190.246 144.309 170.997 147.394 168.898 160.488 188.147 157.405 190.246"></polyline>
                <polyline id="Fill-24" fill="#FFFFFE" points="161.207 162.888 155.25 167.996 158.875 172.215 163.466 168.277 166.041 171.271 161.446 175.211 167.836 182.653 165.003 185.082 149.846 167.431 158.633 159.893 161.207 162.888"></polyline>
                <polyline id="Fill-25" fill="#004A86" points="154.932 158.85 159.833 164.269 162.41 162.205 157.512 156.27 154.932 158.85"></polyline>
                <polyline id="Fill-26" fill="#004A86" points="160.863 166.591 165.764 172.01 168.343 169.946 163.443 164.01 160.863 166.591"></polyline>
                <path d="M171.48,142.967 C173.611,139.284 177.663,139.794 180.148,141.304 C182.286,142.599 183.639,144.894 183.5,147.007 L194.268,149.23 L192.311,152.604 L182.526,150.56 L181.109,153.009 L189.224,157.932 L187.365,161.141 L167.82,149.282 L171.48,142.967 Z M178.606,149.598 C179.415,148.199 180.754,146.12 178.318,144.642 C175.629,143.011 174.605,145.308 173.688,146.892 L172.997,148.084 L177.793,150.996 L178.606,149.598 L178.606,149.598 Z" id="Fill-27" fill="#FFFFFE"></path>
                <polyline id="Fill-28" fill="#FFFFFE" points="176.258 132.39 192.592 132.006 192.605 131.961 178.052 127.184 179.24 123.73 201.315 130.974 200.042 134.673 180.064 135.366 180.05 135.41 197.784 141.23 196.594 144.684 174.521 137.44 176.258 132.39"></polyline>
                <polyline id="Fill-29" fill="#FFFFFE" points="202.697 124.255 179.479 120.833 180.044 117.227 203.263 120.648 202.697 124.255"></polyline>
                <path d="M203.991,101.485 L203.991,105.201 L198.103,106.393 L198.103,111.768 L203.991,112.96 L203.991,116.676 L180.51,111.581 L180.51,106.673 L203.991,101.485 Z M184.555,109.035 L184.555,109.128 L194.392,111.043 L194.392,107.118 L184.555,109.035 L184.555,109.035 Z" id="Fill-30" fill="#FFFFFE"></path>
                <polyline id="Fill-31" fill="#FFFFFE" points="43.276 38.937 40.065 42.543 54.486 55.405 52.006 58.19 37.585 45.329 34.374 48.937 31.427 46.309 40.33 36.309 43.276 38.937"></polyline>
                <path d="M60.402,35.092 C64.021,39.531 66.016,45.637 61.999,48.919 C57.982,52.202 52.405,49.023 48.785,44.585 C45.166,40.146 43.171,34.039 47.188,30.757 C51.205,27.474 56.783,30.652 60.402,35.092 Z M51.68,42.218 C53.527,44.484 57.303,48.115 59.728,46.134 C62.152,44.152 59.354,39.722 57.507,37.457 C55.66,35.193 51.884,31.561 49.459,33.542 C47.035,35.523 49.833,39.954 51.68,42.218 L51.68,42.218 Z" id="Fill-32" fill="#FFFFFE"></path>
                <polyline id="Fill-33" fill="#FFFFFE" points="68.308 18.576 73.693 15.975 83.562 36.449 80.28 38.035 72.415 21.717 72.374 21.737 77.209 39.517 74.263 40.94 63.369 26.087 63.327 26.108 71.191 42.424 67.91 44.009 58.041 23.534 63.427 20.933 72.924 34.45 72.966 34.429 68.308 18.576"></polyline>
                <path d="M99.654,33.704 L98.799,10.47 L104.033,10.27 C109.919,10.045 111.511,12.616 111.65,16.379 C111.73,18.559 110.971,20.172 109.538,21.274 C111.232,22.226 112.288,24.19 112.374,26.519 C112.521,30.521 110.073,33.306 106.756,33.432 L99.654,33.704 Z M105.523,29.802 C106.621,29.759 108.753,29.857 108.623,26.333 C108.509,23.168 106.436,22.828 102.921,23.291 L103.164,29.891 L105.523,29.802 Z M102.792,19.768 C105.478,19.665 108.038,19.956 107.92,16.76 C107.799,13.446 105.149,13.905 102.579,14.003 L102.792,19.768 L102.792,19.768 Z" id="Fill-34" fill="#FFFFFE"></path>
                <polyline id="Fill-35" fill="#FFFFFE" points="114.378 33.523 116.766 10.66 120.39 11.049 118.003 33.911 114.378 33.523"></polyline>
                <polyline id="Fill-36" fill="#FFFFFE" points="126.02 31.855 133.37 33.669 132.456 37.469 121.56 34.782 126.963 12.387 130.503 13.26 126.02 31.855"></polyline>
                <polyline id="Fill-37" fill="#004A86" points="130.798 31.563 129.16 38.57 134.267 40 135.167 32.687 130.798 31.563"></polyline>
                <polyline id="Fill-38" fill="#FFFFFE" points="149.77 24.564 142.763 21.436 140.561 26.45 146.374 29.045 144.812 32.603 138.998 30.009 136.678 35.294 144.092 38.604 142.531 42.163 131.782 37.364 140.99 16.389 151.331 21.006 149.77 24.564"></polyline>
                <polyline id="Fill-39" fill="#FFFFFE" points="164.016 54.262 169.059 60.027 166.127 62.6 158.655 54.059 175.941 38.893 178.371 41.669 164.016 54.262"></polyline>
                <polyline id="Fill-40" fill="#004A86" points="168.144 56.804 162.775 61.578 166.183 65.716 171.119 60.262 168.144 56.804"></polyline>
                <path d="M191.596,59.989 L178.336,68.413 C174.392,70.919 170.746,70.187 168.688,66.949 C166.636,63.712 167.521,60.099 171.464,57.595 L184.724,49.17 L186.678,52.249 L174.651,59.891 C171.449,61.927 170.95,63.323 171.944,64.882 C172.933,66.442 174.407,66.585 177.611,64.551 L189.639,56.91 L191.596,59.989" id="Fill-41" fill="#FFFFFE"></path>
                <path d="M173.451,74.773 L194.834,66.093 L196.868,70.934 C199.157,76.379 197.318,78.745 193.854,80.15 C191.851,80.965 190.074,80.799 188.541,79.829 C188.25,81.743 186.791,83.398 184.646,84.267 C180.964,85.763 177.503,84.412 176.213,81.343 L173.451,74.773 Z M179.166,78.956 C179.592,79.971 180.254,82.004 183.496,80.687 C186.411,79.505 185.998,77.446 184.323,74.306 L178.247,76.772 L179.166,78.956 Z M187.565,72.989 C188.609,75.476 189.242,77.976 192.185,76.781 C195.231,75.543 193.868,73.214 192.869,70.836 L187.565,72.989 L187.565,72.989 Z" id="Fill-42" fill="#FFFFFE"></path>
                <path d="M42.073,71.497 L40.616,74.934 L34.741,73.86 L32.633,78.831 L37.574,82.107 L36.118,85.544 L16.539,72.153 L18.463,67.615 L42.073,71.497 Z M21.254,71.292 L21.217,71.379 L29.506,76.788 L31.046,73.158 L21.254,71.292 L21.254,71.292 Z" id="Fill-43" fill="#FFFFFE"></path>
                <path d="M26.285,108.847 C27.863,108.495 29.47,107.794 29.47,106.323 C29.47,105.131 28.389,104.102 26.84,104.102 C22.368,104.102 25.291,112.657 16.815,112.657 C14.039,112.657 9.889,110.973 9.889,106.486 C9.889,103.027 11.993,100.526 16.435,99.965 L17.108,103.611 C15.179,103.939 13.747,104.732 13.747,106.462 C13.747,107.889 14.682,109.08 16.64,109.08 C21.199,109.08 18.569,100.526 26.314,100.526 C30.405,100.526 33.328,103.285 33.328,106.439 C33.328,109.524 30.843,111.838 27.015,112.141 L26.285,108.847" id="Fill-44" fill="#FFFFFE"></path>
                <path d="M121.194,195.98 C120.967,200.683 118.674,203.684 114.901,203.95 C109.729,204.313 106.998,198.502 106.592,192.79 C106.186,187.079 108.067,180.945 113.239,180.581 C116.966,180.319 119.652,182.825 120.598,187.589 L117.191,188.414 C116.675,186.078 115.686,184.011 113.494,184.165 C110.371,184.384 110.111,189.615 110.319,192.53 C110.526,195.443 111.525,200.584 114.646,200.366 C116.812,200.213 117.524,198.026 117.707,195.669 L121.194,195.98" id="Fill-45" fill="#FFFFFE"></path>
                <path d="M176.886,157.597 C181.069,161.511 183.87,167.295 180.324,171.083 C176.783,174.872 170.824,172.469 166.641,168.554 C162.455,164.64 159.659,158.857 163.201,155.068 C166.745,151.278 172.703,153.682 176.886,157.597 Z M169.194,165.824 C171.329,167.821 175.559,170.914 177.697,168.628 C179.836,166.34 176.468,162.325 174.333,160.328 C172.199,158.329 167.966,155.236 165.827,157.524 C163.689,159.811 167.06,163.827 169.194,165.824 L169.194,165.824 Z" id="Fill-46" fill="#FFFFFE"></path>
                <path d="M162.92,47.802 C159.54,51.079 155.813,51.704 152.877,49.319 C148.852,46.05 150.828,39.94 154.434,35.494 C158.041,31.048 163.609,27.854 167.639,31.122 C170.541,33.478 170.786,37.142 168.221,41.268 L165.167,39.542 C166.388,37.484 167.077,35.298 165.371,33.914 C162.945,31.94 159.176,35.582 157.336,37.85 C155.498,40.118 152.708,44.554 155.14,46.528 C156.827,47.897 158.839,46.785 160.585,45.191 L162.92,47.802" id="Fill-47" fill="#FFFFFE"></path>
                <path d="M96.148,22.288 C97.265,27.91 96.165,34.241 91.075,35.254 C85.986,36.267 82.547,30.838 81.43,25.217 C80.313,19.597 81.415,13.264 86.503,12.251 C91.592,11.239 95.031,16.667 96.148,22.288 Z M85.098,24.487 C85.668,27.355 87.302,32.338 90.374,31.726 C93.446,31.114 93.05,25.886 92.48,23.018 C91.91,20.15 90.276,15.167 87.204,15.779 C84.133,16.391 84.529,21.619 85.098,24.487 L85.098,24.487 Z" id="Fill-48" fill="#FFFFFE"></path>
                <path d="M29.919,48.286 L43.043,56.934 C46.947,59.506 47.778,63.13 45.67,66.331 C43.563,69.532 39.905,70.2 36.001,67.627 L22.876,58.981 L24.881,55.937 L36.786,63.78 C39.958,65.87 41.435,65.75 42.45,64.209 C43.465,62.667 42.991,61.265 39.819,59.174 L27.914,51.331 L29.919,48.286" id="Fill-49" fill="#FFFFFE"></path>
                <path d="M107.246,152.791 C108.524,152.791 109.561,151.753 109.561,150.474 C109.561,149.195 108.524,148.157 107.246,148.157 C105.966,148.157 104.929,149.195 104.929,150.474 C104.929,151.753 105.966,152.791 107.246,152.791" id="Fill-50" fill="#D82332"></path>
                <path d="M107.246,152.791 C108.524,152.791 109.561,151.753 109.561,150.474 C109.561,149.195 108.524,148.157 107.246,148.157 C105.966,148.157 104.929,149.195 104.929,150.474 C104.929,151.753 105.966,152.791 107.246,152.791 Z" id="Stroke-51" stroke="#1A1919" stroke-width="1.63"></path>
                <path d="M107.246,150.036 C110.786,150.036 113.658,147.162 113.658,143.618 C113.658,140.075 110.786,137.202 107.246,137.202 C103.703,137.202 100.832,140.075 100.832,143.618 C100.832,147.162 103.703,150.036 107.246,150.036" id="Fill-52" fill="#D82332"></path>
                <path d="M113.487,67.241 C113.549,55.154 100.915,55.119 100.953,66.799" id="Fill-53" fill="#D82332"></path>
                <path d="M110.778,66.737 C110.778,64.09 106.684,60.434 106.747,66.484" id="Fill-54" fill="#D82332"></path>
                <path d="M106.994,66.734 C112.787,66.734 115.812,67.491 119.591,69.759 C123.371,72.027 122.867,71.272 123.118,75.809 C123.371,80.346 126.208,106.659 130.678,115.134 C135.463,124.208 139.746,124.713 142.77,126.731 L145.038,135.805 C132.19,141.35 120.095,144.879 106.741,144.627" id="Fill-55" fill="#D82332"></path>
                <path d="M106.994,66.734 C101.198,66.734 98.175,67.491 94.396,69.759 C90.617,72.027 91.12,71.272 90.869,75.809 C90.617,80.346 87.779,106.659 83.31,115.134 C78.523,124.208 74.24,124.713 71.217,126.731 L68.949,135.805 C81.798,141.35 93.892,144.879 107.246,144.627" id="Fill-56" fill="#D82332"></path>
                <path d="M71.726,126.731 C84.072,131.772 111.785,141.098 143.279,126.731" id="Stroke-57" stroke="#1A1919" stroke-width="1.63"></path>
                <polyline id="Fill-58" fill="#FFFFFE" points="101.25 75.836 86.578 126.803 97.377 126.803 99.212 118.853 114.087 118.853 116.53 126.803 126.923 126.803 112.251 75.836 101.25 75.836"></polyline>
                <polygon id="Stroke-59" stroke="#1A1919" stroke-width="1.63" points="101.25 75.836 86.578 126.803 97.377 126.803 99.212 118.853 114.087 118.853 116.53 126.803 126.923 126.803 112.251 75.836"></polygon>
                <polyline id="Fill-60" fill="#D82332" points="106.75 90.311 101.861 109.068 111.845 109.068 106.75 90.311"></polyline>
                <path d="M106.994,66.734 C112.787,66.734 115.812,67.491 119.591,69.759 C123.371,72.027 122.867,71.272 123.118,75.809 C123.371,80.346 126.208,106.659 130.678,115.134 C135.463,124.208 139.746,124.713 142.77,126.731 L145.038,135.805 C132.270975,141.315053 120.247488,144.834437 106.993342,144.631315 C93.739103,144.834313 81.716795,141.314956 68.949,135.805 L68.949,135.805 L71.217,126.731 C74.24,124.713 78.523,124.208 83.31,115.134 C87.779,106.659 90.617,80.346 90.869,75.809 C91.12,71.272 90.617,72.027 94.396,69.759 C98.175,67.491 101.198,66.734 106.994,66.734 L106.994,66.734 Z M113.487,67.241 C113.549,55.154 100.915,55.119 100.953,66.799 L113.487,67.241 Z M110.778,66.737 C110.778,64.09 106.684,60.434 106.747,66.484 L110.778,66.737 Z M100.832,144.383 C101.087,147.417 103.703,150.036 107.246,150.036 C110.786,150.036 113.658,147.672 113.658,144.383 L100.832,144.383 Z M106.75,90.311 L101.861,109.068 L111.845,109.068 L106.75,90.311 Z" id="Stroke-61" stroke="#1A1919" stroke-width="1.63"></path>
                <path d="M80.89,118.634 L89.04,118.634 L86.238,107.167 C84.965,112.008 83.182,116.086 80.89,118.634" id="Fill-62" fill="#1A1919"></path>
                <polyline id="Fill-63" fill="#FFFFFE" points="74.24 80.599 70.268 80.599 60.694 117.655 68.134 117.655 74.24 89.673"></polyline>
                <polyline id="Fill-64" fill="#FFFFFE" points="74.24 80.599 78.212 80.599 87.786 117.655 79.939 117.655 74.24 89.673"></polyline>
                <polyline id="Fill-65" fill="#FFFFFE" points="67.941 105.773 82.051 105.773 82.051 111.066 67.69 111.066 67.941 105.773"></polyline>
                <path d="M133.102,118.634 L124.442,118.634 L127.753,105.638 C129.026,110.48 130.81,116.086 133.102,118.634" id="Fill-66" fill="#1A1919"></path>
                <polyline id="Fill-67" fill="#FFFFFE" points="139.442 80.599 135.473 80.599 125.896 117.655 133.339 117.655 139.442 89.673"></polyline>
                <polyline id="Fill-68" fill="#FFFFFE" points="139.442 80.599 143.414 80.599 152.99 117.655 145.142 117.655 139.442 89.673"></polyline>
                <polyline id="Fill-69" fill="#FFFFFE" points="133.146 105.773 147.253 105.773 147.253 111.066 132.893 111.066 133.146 105.773"></polyline>
                <path d="M195.526,189.5 C198.967,189.5 201.705,192.387 201.705,195.762 C201.705,199.22 198.902,202.026 195.479,202.026 C192.04,202.026 189.235,199.204 189.235,195.762 C189.235,192.404 191.941,189.5 195.511,189.5 L195.526,189.5 Z M195.479,190.756 C192.725,190.756 190.589,193.023 190.589,195.762 C190.589,198.536 192.804,200.77 195.479,200.77 C198.152,200.77 200.353,198.569 200.353,195.762 C200.353,193.073 198.248,190.756 195.496,190.756 L195.479,190.756 Z M195.739,192.224 C197.075,192.224 198.282,192.779 198.282,194.18 C198.282,194.752 198.088,195.438 197.159,195.861 C197.663,196.073 198.088,196.415 198.152,197.476 C198.232,198.683 198.232,198.813 198.362,199.172 L196.686,199.172 C196.556,198.927 196.489,197.737 196.459,197.508 C196.407,197.117 196.311,196.496 195.219,196.496 L194.534,196.496 L194.534,199.172 L192.804,199.172 L192.804,192.224 L195.739,192.224 Z M194.534,193.414 L194.534,195.371 L195.365,195.371 C195.723,195.371 196.556,195.371 196.556,194.312 C196.556,193.43 195.82,193.414 195.463,193.414 L194.534,193.414 L194.534,193.414 Z" id="Fill-70" fill="#004A86"></path>
            </g>
        </g>
    </g>
</svg>